<svg width="19" height="20" viewBox="0 0 19 20" fill="none" xmlns="http://www.w3.org/2000/svg">
<path d="M3.36973 13.6367C2.4857 12.1452 2.17648 10.3823 2.50012 8.67901C2.82375 6.97569 3.75799 5.44906 5.12744 4.38574C6.49689 3.32241 8.20738 2.79551 9.93778 2.90396C11.6682 3.0124 13.2995 3.74873 14.5255 4.97471C15.7515 6.20069 16.4878 7.83201 16.5962 9.56242C16.7047 11.2928 16.1778 13.0033 15.1145 14.3728C14.0511 15.7422 12.5245 16.6764 10.8212 17.0001C9.11786 17.3237 7.35497 17.0145 5.86348 16.1305V16.1305L3.39942 16.8281C3.29846 16.8576 3.19143 16.8595 3.08952 16.8334C2.98762 16.8073 2.89461 16.7543 2.82023 16.68C2.74586 16.6056 2.69286 16.5126 2.66679 16.4107C2.64072 16.3088 2.64255 16.2017 2.67208 16.1008L3.36973 13.6367Z" stroke="#9F9F9F" stroke-width="1.5" stroke-linecap="round" stroke-linejoin="round"/>
<path d="M9.5 10.7422C9.9099 10.7422 10.2422 10.4099 10.2422 10C10.2422 9.5901 9.9099 9.25781 9.5 9.25781C9.0901 9.25781 8.75781 9.5901 8.75781 10C8.75781 10.4099 9.0901 10.7422 9.5 10.7422Z" fill="#9F9F9F"/>
<path d="M13.0625 10.7422C13.4724 10.7422 13.8047 10.4099 13.8047 10C13.8047 9.5901 13.4724 9.25781 13.0625 9.25781C12.6526 9.25781 12.3203 9.5901 12.3203 10C12.3203 10.4099 12.6526 10.7422 13.0625 10.7422Z" fill="#9F9F9F"/>
<path d="M5.9375 10.7422C6.3474 10.7422 6.67969 10.4099 6.67969 10C6.67969 9.5901 6.3474 9.25781 5.9375 9.25781C5.5276 9.25781 5.19531 9.5901 5.19531 10C5.19531 10.4099 5.5276 10.7422 5.9375 10.7422Z" fill="#9F9F9F"/>
</svg>
