<svg width="38" height="33" viewBox="0 0 38 33" fill="none" xmlns="http://www.w3.org/2000/svg">
<g filter="url(#filter0_b_94_262)">
<rect x="0.784668" y="0.428711" width="36.4585" height="31.6286" rx="10" fill="#181A20" fill-opacity="0.5"/>
</g>
<g clip-path="url(#clip0_94_262)">
<path d="M20.2627 12.3824C21.4261 11.3411 23.3069 11.2033 24.5105 12.0929C25.8607 13.0929 25.9128 14.808 24.7275 15.869L24.7273 15.8692L19.0234 20.9786C19.0208 20.9791 19.0172 20.9795 19.0127 20.9795C19.0082 20.9795 19.0045 20.9791 19.0019 20.9786L13.2985 15.8696C12.1154 14.8086 12.1674 13.093 13.5179 12.0929C14.7218 11.203 16.6051 11.3416 17.7648 12.3818L17.766 12.3829L18.3477 12.9028L19.0141 13.4986L19.6806 12.9028L20.2623 12.3829L20.2627 12.3824Z" stroke="white" stroke-width="2"/>
</g>
<defs>
<filter id="filter0_b_94_262" x="-19.2153" y="-19.5713" width="76.4585" height="71.6286" filterUnits="userSpaceOnUse" color-interpolation-filters="sRGB">
<feFlood flood-opacity="0" result="BackgroundImageFix"/>
<feGaussianBlur in="BackgroundImageFix" stdDeviation="10"/>
<feComposite in2="SourceAlpha" operator="in" result="effect1_backgroundBlur_94_262"/>
<feBlend mode="normal" in="SourceGraphic" in2="effect1_backgroundBlur_94_262" result="shape"/>
</filter>
<clipPath id="clip0_94_262">
<rect width="15.1169" height="13.1143" fill="white" transform="translate(11.4556 9.68555)"/>
</clipPath>
</defs>
</svg>
